<mxfile host="drawio-plugin" modified="2023-10-30T14:26:27.827Z" agent="5.0 (Windows NT 10.0; Win64; x64) AppleWebKit/537.36 (KHTML, like Gecko) Chrome/111.0.0.0 Safari/537.36" etag="LQON3CI-PsZIRsWuYmKX" version="20.5.3" type="embed" pages="2"><diagram name="Customer" id="zoVcXNsuYOWW-Xz_1kya"><mxGraphModel dx="874" dy="726" grid="1" gridSize="10" guides="1" tooltips="1" connect="1" arrows="1" fold="1" page="1" pageScale="1" pageWidth="850" pageHeight="1100" math="0" shadow="0"><root><mxCell id="hTwg6iLdYnpdlnIGm2lR-0"/><mxCell id="hTwg6iLdYnpdlnIGm2lR-1" parent="hTwg6iLdYnpdlnIGm2lR-0"/><object label="Customer" Customer="" id="hTwg6iLdYnpdlnIGm2lR-2"><mxCell style="shape=umlActor;verticalLabelPosition=bottom;verticalAlign=top;html=1;outlineConnect=0;" parent="hTwg6iLdYnpdlnIGm2lR-1" vertex="1"><mxGeometry x="290" y="360" width="100" height="130" as="geometry"/></mxCell></object><mxCell id="6hEwRnyom9qojtWVrpg2-3" value="" style="endArrow=none;html=1;rounded=0;" parent="hTwg6iLdYnpdlnIGm2lR-1" target="6hEwRnyom9qojtWVrpg2-4" edge="1"><mxGeometry width="50" height="50" relative="1" as="geometry"><mxPoint x="360" y="400" as="sourcePoint"/><mxPoint x="480" y="260" as="targetPoint"/></mxGeometry></mxCell><mxCell id="6hEwRnyom9qojtWVrpg2-4" value="Can login" style="ellipse;whiteSpace=wrap;html=1;" parent="hTwg6iLdYnpdlnIGm2lR-1" vertex="1"><mxGeometry x="380" y="70" width="120" height="80" as="geometry"/></mxCell><mxCell id="6hEwRnyom9qojtWVrpg2-5" value="Can register" style="ellipse;whiteSpace=wrap;html=1;" parent="hTwg6iLdYnpdlnIGm2lR-1" vertex="1"><mxGeometry x="70" y="200" width="120" height="80" as="geometry"/></mxCell><mxCell id="6hEwRnyom9qojtWVrpg2-7" value="" style="endArrow=none;html=1;rounded=0;exitX=0.36;exitY=0.3;exitDx=0;exitDy=0;exitPerimeter=0;" parent="hTwg6iLdYnpdlnIGm2lR-1" source="hTwg6iLdYnpdlnIGm2lR-2" edge="1"><mxGeometry width="50" height="50" relative="1" as="geometry"><mxPoint x="80" y="375.27" as="sourcePoint"/><mxPoint x="170.23166369858995" y="269.99972568497833" as="targetPoint"/></mxGeometry></mxCell><mxCell id="6hEwRnyom9qojtWVrpg2-8" value="Can apply for loan" style="ellipse;whiteSpace=wrap;html=1;" parent="hTwg6iLdYnpdlnIGm2lR-1" vertex="1"><mxGeometry x="200" y="80" width="120" height="80" as="geometry"/></mxCell><mxCell id="6hEwRnyom9qojtWVrpg2-9" value="" style="endArrow=none;html=1;rounded=0;entryX=0.65;entryY=0.963;entryDx=0;entryDy=0;entryPerimeter=0;" parent="hTwg6iLdYnpdlnIGm2lR-1" source="hTwg6iLdYnpdlnIGm2lR-2" target="6hEwRnyom9qojtWVrpg2-8" edge="1"><mxGeometry width="50" height="50" relative="1" as="geometry"><mxPoint x="220" y="265.27" as="sourcePoint"/><mxPoint x="310.23166369858995" y="159.99972568497836" as="targetPoint"/></mxGeometry></mxCell><mxCell id="6hEwRnyom9qojtWVrpg2-10" value="Can view &lt;br&gt;&lt;span style=&quot;color: rgba(0, 0, 0, 0); font-family: monospace; font-size: 0px; text-align: start; white-space: nowrap;&quot;&gt;%3CmxGraphModel%3E%3Croot%3E%3CmxCell%20id%3D%220%22%2F%3E%3CmxCell%20id%3D%221%22%20parent%3D%220%22%2F%3E%3CmxCell%20id%3D%222%22%20value%3D%22%22%20style%3D%22endArrow%3Dnone%3Bhtml%3D1%3Brounded%3D0%3B%22%20edge%3D%221%22%20parent%3D%221%22%3E%3CmxGeometry%20width%3D%2250%22%20height%3D%2250%22%20relative%3D%221%22%20as%3D%22geometry%22%3E%3CmxPoint%20x%3D%22360%22%20y%3D%22400%22%20as%3D%22sourcePoint%22%2F%3E%3CmxPoint%20x%3D%22486.9230769230769%22%20y%3D%22196.92307692307668%22%20as%3D%22targetPoint%22%2F%3E%3C%2FmxGeometry%3E%3C%2FmxCell%3E%3C%2Froot%3E%3C%2FmxGraphModel%3E&lt;/span&gt;application status" style="ellipse;whiteSpace=wrap;html=1;" parent="hTwg6iLdYnpdlnIGm2lR-1" vertex="1"><mxGeometry x="510" y="150" width="120" height="80" as="geometry"/></mxCell><mxCell id="6hEwRnyom9qojtWVrpg2-12" value="Can view &lt;br&gt;loan agreement&lt;br&gt;&lt;span style=&quot;color: rgba(0, 0, 0, 0); font-family: monospace; font-size: 0px; text-align: start; white-space: nowrap;&quot;&gt;&amp;nbsp;%3CmxGraphModel%3E%3Croot%3E%3CmxCell%20id%3D%220%22%2F%3E%3CmxCell%20id%3D%221%22%20parent%3D%220%22%2F%3E%3CmxCell%20id%3D%222%22%20value%3D%22%22%20style%3D%22endArrow%3Dnone%3Bhtml%3D1%3Brounded%3D0%3B%22%20edge%3D%221%22%20parent%3D%221%22%3E%3CmxGeometry%20width%3D%2250%22%20height%3D%2250%22%20relative%3D%221%22%20as%3D%22geometry%22%3E%3CmxPoint%20x%3D%22360%22%20y%3D%22400%22%20as%3D%22sourcePoint%22%2F%3E%3CmxPoint%20x%3D%22486.9230769230769%22%20y%3D%22196.92307692307668%22%20as%3D%22targetPoint%22%2F%3E%3C%2FmxGeometry%3E%3C%2FmxCell%3E%3C%2Froot%3E%3C%2FmxGraphModel%3loan agreement&lt;/span&gt;" style="ellipse;whiteSpace=wrap;html=1;" parent="hTwg6iLdYnpdlnIGm2lR-1" vertex="1"><mxGeometry x="590" y="270" width="120" height="80" as="geometry"/></mxCell><mxCell id="6hEwRnyom9qojtWVrpg2-13" value="" style="endArrow=none;html=1;rounded=0;" parent="hTwg6iLdYnpdlnIGm2lR-1" edge="1"><mxGeometry width="50" height="50" relative="1" as="geometry"><mxPoint x="370" y="400" as="sourcePoint"/><mxPoint x="529.1475183562709" y="220.0002459585177" as="targetPoint"/></mxGeometry></mxCell><mxCell id="6hEwRnyom9qojtWVrpg2-14" value="" style="endArrow=none;html=1;rounded=0;" parent="hTwg6iLdYnpdlnIGm2lR-1" edge="1"><mxGeometry width="50" height="50" relative="1" as="geometry"><mxPoint x="380" y="400" as="sourcePoint"/><mxPoint x="599.1475183562709" y="330.00024595851767" as="targetPoint"/></mxGeometry></mxCell></root></mxGraphModel></diagram><diagram name="Loan Officer" id="wcX_fcCA4WrJiuEOjbl7"><mxGraphModel dx="874" dy="726" grid="1" gridSize="10" guides="1" tooltips="1" connect="1" arrows="1" fold="1" page="1" pageScale="1" pageWidth="850" pageHeight="1100" math="0" shadow="0"><root><mxCell id="ontQTOJme2BtOWcnztog-0"/><mxCell id="ontQTOJme2BtOWcnztog-1" parent="ontQTOJme2BtOWcnztog-0"/><object label="Loan Officer" Customer="" id="ontQTOJme2BtOWcnztog-2"><mxCell style="shape=umlActor;verticalLabelPosition=bottom;verticalAlign=top;html=1;outlineConnect=0;" parent="ontQTOJme2BtOWcnztog-1" vertex="1"><mxGeometry x="290" y="360" width="100" height="130" as="geometry"/></mxCell></object><mxCell id="ontQTOJme2BtOWcnztog-3" value="" style="endArrow=none;html=1;rounded=0;" parent="ontQTOJme2BtOWcnztog-1" target="ontQTOJme2BtOWcnztog-4" edge="1"><mxGeometry width="50" height="50" relative="1" as="geometry"><mxPoint x="360" y="400" as="sourcePoint"/><mxPoint x="480" y="260" as="targetPoint"/></mxGeometry></mxCell><mxCell id="ontQTOJme2BtOWcnztog-4" value="Can login" style="ellipse;whiteSpace=wrap;html=1;" parent="ontQTOJme2BtOWcnztog-1" vertex="1"><mxGeometry x="380" y="70" width="120" height="80" as="geometry"/></mxCell><mxCell id="ontQTOJme2BtOWcnztog-5" value="can review loan application" style="ellipse;whiteSpace=wrap;html=1;" parent="ontQTOJme2BtOWcnztog-1" vertex="1"><mxGeometry x="70" y="200" width="120" height="80" as="geometry"/></mxCell><mxCell id="ontQTOJme2BtOWcnztog-6" value="" style="endArrow=none;html=1;rounded=0;exitX=0.36;exitY=0.3;exitDx=0;exitDy=0;exitPerimeter=0;" parent="ontQTOJme2BtOWcnztog-1" source="ontQTOJme2BtOWcnztog-2" edge="1"><mxGeometry width="50" height="50" relative="1" as="geometry"><mxPoint x="80" y="375.27" as="sourcePoint"/><mxPoint x="170.23166369858995" y="269.99972568497833" as="targetPoint"/></mxGeometry></mxCell><mxCell id="ontQTOJme2BtOWcnztog-7" value="can&amp;nbsp; view loan applications" style="ellipse;whiteSpace=wrap;html=1;" parent="ontQTOJme2BtOWcnztog-1" vertex="1"><mxGeometry x="200" y="80" width="120" height="80" as="geometry"/></mxCell><mxCell id="ontQTOJme2BtOWcnztog-8" value="" style="endArrow=none;html=1;rounded=0;entryX=0.65;entryY=0.963;entryDx=0;entryDy=0;entryPerimeter=0;" parent="ontQTOJme2BtOWcnztog-1" source="ontQTOJme2BtOWcnztog-2" target="ontQTOJme2BtOWcnztog-7" edge="1"><mxGeometry width="50" height="50" relative="1" as="geometry"><mxPoint x="220" y="265.27" as="sourcePoint"/><mxPoint x="310.23166369858995" y="159.99972568497836" as="targetPoint"/></mxGeometry></mxCell><mxCell id="ontQTOJme2BtOWcnztog-9" value="can approve/reject loan application" style="ellipse;whiteSpace=wrap;html=1;" parent="ontQTOJme2BtOWcnztog-1" vertex="1"><mxGeometry x="530" y="160" width="120" height="80" as="geometry"/></mxCell><mxCell id="ontQTOJme2BtOWcnztog-10" value="can generate loan agreement" style="ellipse;whiteSpace=wrap;html=1;" parent="ontQTOJme2BtOWcnztog-1" vertex="1"><mxGeometry x="590" y="270" width="120" height="80" as="geometry"/></mxCell><mxCell id="ontQTOJme2BtOWcnztog-11" value="" style="endArrow=none;html=1;rounded=0;entryX=0;entryY=1;entryDx=0;entryDy=0;" parent="ontQTOJme2BtOWcnztog-1" target="uMDo21UZaU0xbHjzL2Lf-0" edge="1"><mxGeometry width="50" height="50" relative="1" as="geometry"><mxPoint x="370" y="400" as="sourcePoint"/><mxPoint x="570" y="100" as="targetPoint"/></mxGeometry></mxCell><mxCell id="ontQTOJme2BtOWcnztog-12" value="" style="endArrow=none;html=1;rounded=0;" parent="ontQTOJme2BtOWcnztog-1" edge="1"><mxGeometry width="50" height="50" relative="1" as="geometry"><mxPoint x="380" y="400" as="sourcePoint"/><mxPoint x="599.1475183562709" y="330.00024595851767" as="targetPoint"/></mxGeometry></mxCell><mxCell id="uMDo21UZaU0xbHjzL2Lf-0" value="can update loan status" style="ellipse;whiteSpace=wrap;html=1;" parent="ontQTOJme2BtOWcnztog-1" vertex="1"><mxGeometry x="560" y="30" width="120" height="80" as="geometry"/></mxCell><mxCell id="uMDo21UZaU0xbHjzL2Lf-1" value="" style="endArrow=none;html=1;rounded=0;entryX=0;entryY=1;entryDx=0;entryDy=0;" parent="ontQTOJme2BtOWcnztog-1" target="ontQTOJme2BtOWcnztog-9" edge="1"><mxGeometry width="50" height="50" relative="1" as="geometry"><mxPoint x="370.85" y="400" as="sourcePoint"/><mxPoint x="529.9975183562709" y="220.00024595851767" as="targetPoint"/></mxGeometry></mxCell></root></mxGraphModel></diagram></mxfile>